<svg width="148" height="53" viewBox="0 0 148 53" fill="none" xmlns="http://www.w3.org/2000/svg">
<path d="M62.2701 10.1504H47.0808V40.8384H31.0968V10.1504H15.9075V40.8384H0V10.2984C0 8.87791 0.30562 7.54622 0.916861 6.28852C1.5281 5.03082 2.33799 3.95067 3.33126 3.01849C4.33981 2.10111 5.50116 1.36128 6.81533 0.813808C8.1295 0.266337 9.53535 0 11.0023 0H78.2693V40.8384H62.2854V10.1504H62.2701Z" fill="#B5D411"/>
<path d="M147.955 30.688V40.8384H96.9772C95.4643 40.8384 94.0279 40.5573 92.6832 39.9802C91.3385 39.4179 90.1618 38.6485 89.1686 37.6719C88.16 36.6954 87.3654 35.5708 86.7847 34.2687C86.2041 32.9666 85.8984 31.5758 85.8984 30.1109V10.7275C85.8984 9.26262 86.1888 7.87175 86.7847 6.56965C87.3654 5.26756 88.16 4.12823 89.1686 3.16646C90.1771 2.18988 91.3385 1.42047 92.6832 0.858198C94.0279 0.29593 95.4643 0 96.9772 0H147.955V10.1504H101.898V30.6732H147.955V30.688ZM110.837 25.2133V15.6991H144.73V25.2133H110.837Z" fill="#B5D411"/>
<path d="M71.571 51.3015V52.894H63.5663C63.3265 52.894 63.105 52.8511 62.891 52.7618C62.6806 52.6726 62.4961 52.5512 62.3374 52.4012C62.1787 52.2513 62.0569 52.0691 61.9647 51.8656C61.8724 51.6621 61.8281 51.4443 61.8281 51.2122V48.17C61.8281 47.9415 61.8724 47.7237 61.9647 47.5166C62.0569 47.3131 62.1824 47.1346 62.3374 46.981C62.4961 46.8275 62.6806 46.7097 62.891 46.6204C63.1013 46.5311 63.3265 46.4883 63.5663 46.4883H71.5673V48.0808H64.3376V51.3015H71.5673H71.571ZM65.7437 50.4445V48.952H71.0617V50.4445H65.7437Z" fill="white"/>
<path d="M75.2632 51.3015H82.4929V52.894H72.75V46.4883H75.2595V51.3015H75.2632Z" fill="white"/>
<path d="M93.4267 51.3015V52.894H85.4257C85.1858 52.894 84.9644 52.8511 84.7504 52.7618C84.54 52.6726 84.3555 52.5512 84.1968 52.4012C84.0381 52.2513 83.9163 52.0691 83.824 51.8656C83.7318 51.6621 83.6875 51.4443 83.6875 51.2122V48.17C83.6875 47.9415 83.7318 47.7237 83.824 47.5166C83.9163 47.3131 84.0418 47.1346 84.1968 46.981C84.3555 46.8275 84.54 46.7097 84.7504 46.6204C84.9607 46.5311 85.1858 46.4883 85.4257 46.4883H93.4267V48.0808H86.197V51.3015H93.4267ZM87.5994 50.4445V48.952H92.9174V50.4445H87.5994Z" fill="white"/>
<path d="M97.1189 51.3015H104.349V52.894H96.3476C96.1077 52.894 95.8863 52.8511 95.6722 52.7618C95.4619 52.6726 95.2774 52.5512 95.1187 52.4012C94.96 52.2513 94.8382 52.0691 94.7459 51.8656C94.6537 51.6621 94.6094 51.4443 94.6094 51.2122V48.17C94.6094 47.9415 94.6537 47.7237 94.7459 47.5166C94.8382 47.3131 94.9637 47.1346 95.1187 46.981C95.2774 46.8275 95.4619 46.7097 95.6722 46.6204C95.8826 46.5311 96.1077 46.4883 96.3476 46.4883H104.349V48.0808H97.1189V51.3015Z" fill="white"/>
<path d="M115.211 48.0808H111.632V52.894H109.122V48.0808H105.531V46.4883H115.215V48.0808H115.211Z" fill="white"/>
<path d="M123.65 48.0808H118.908V52.894H116.398V46.4883H124.193C124.436 46.4883 124.676 46.5276 124.912 46.6097C125.145 46.6918 125.355 46.8061 125.54 46.956C125.724 47.106 125.872 47.281 125.983 47.4845C126.093 47.688 126.149 47.913 126.149 48.1593V48.927C126.149 49.1484 126.09 49.3626 125.972 49.5661C125.853 49.7697 125.698 49.9482 125.51 50.1017C125.322 50.2553 125.112 50.3767 124.883 50.4695C124.654 50.5624 124.429 50.6088 124.215 50.6088L126.045 52.894H123.351L120.38 49.1055H123.65V48.0808Z" fill="white"/>
<path d="M127.305 51.3015H130.896V48.0808H127.316V46.4883H137V48.0808H133.409V51.3015H136.988V52.894H127.305V51.3015Z" fill="white"/>
<path d="M140.654 51.3015H147.883V52.894H139.883C139.643 52.894 139.421 52.8511 139.207 52.7618C138.997 52.6726 138.812 52.5512 138.654 52.4012C138.495 52.2477 138.373 52.0691 138.281 51.8656C138.189 51.6621 138.141 51.4443 138.141 51.2122V48.17C138.141 47.9415 138.185 47.7237 138.281 47.5166C138.373 47.3131 138.499 47.1346 138.654 46.981C138.812 46.8275 138.997 46.7097 139.207 46.6204C139.418 46.5311 139.643 46.4883 139.883 46.4883H147.883V48.0808H140.654V51.3015Z" fill="white"/>
<path d="M72.7766 46.8512V46.5362H72.6562V46.4883H72.9604V46.5362H72.8405V46.8517H72.7766V46.8512Z" fill="white"/>
<path d="M72.977 46.8512V46.4883H73.0424L73.1618 46.7233L73.2807 46.4883H73.346V46.8517H73.2826V46.5879L73.1808 46.7887H73.1423L73.0399 46.5879V46.8512H72.9766H72.977Z" fill="white"/>
<path d="M9.83023 48.0894H7.43238V52.9301H4.90909V48.0894H2.51123V52.9301H0V48.1127C0 47.8887 0.0482466 47.6786 0.14474 47.4802C0.241233 47.2818 0.369086 47.1115 0.525887 46.9644C0.685101 46.8197 0.868438 46.703 1.0759 46.6167C1.28336 46.5303 1.50529 46.4883 1.73688 46.4883H12.3559V52.9301H9.83265V48.0894H9.83023Z" fill="white"/>
<path d="M23.3043 51.329V52.9301H15.2567C15.0179 52.9301 14.7912 52.8857 14.5789 52.7947C14.3666 52.706 14.1809 52.5846 14.0241 52.4306C13.8648 52.2765 13.7394 52.0992 13.6477 51.8938C13.5561 51.6884 13.5078 51.469 13.5078 51.2379V48.1804C13.5078 47.9494 13.5536 47.73 13.6477 47.5246C13.7394 47.3192 13.8648 47.1395 14.0241 46.9878C14.1833 46.8337 14.3666 46.7123 14.5789 46.6237C14.7912 46.535 15.0179 46.4883 15.2567 46.4883H23.3043V48.0894H16.0335V51.3266H23.3043V51.329ZM17.4447 50.4654V48.9646H22.7953V50.4654H17.4447Z" fill="white"/>
<path d="M24.5234 51.329H28.1371V48.0894H24.5355V46.4883H34.2741V48.0894H30.6604V51.3266H34.262V52.9277H24.5234V51.3266V51.329Z" fill="white"/>
<path d="M37.9764 52.9301H35.4531V46.4883H43.5248C43.7564 46.4883 43.9759 46.5303 44.1858 46.6167C44.3932 46.703 44.5765 46.8174 44.7358 46.9644C44.895 47.1091 45.0204 47.2818 45.1169 47.4802C45.2134 47.6786 45.2617 47.8887 45.2617 48.1127V52.9301H42.748V48.0894H37.9764V52.9301Z" fill="white"/>
<path d="M56.2418 51.329V52.9301H48.1942C47.9554 52.9301 47.7287 52.8857 47.5164 52.7947C47.3041 52.706 47.1184 52.5846 46.9616 52.4306C46.8023 52.2765 46.6769 52.0992 46.5852 51.8938C46.4936 51.6884 46.4453 51.469 46.4453 51.2379V48.1804C46.4453 47.9494 46.4911 47.73 46.5852 47.5246C46.6769 47.3192 46.8023 47.1395 46.9616 46.9878C47.1208 46.8337 47.3041 46.7123 47.5164 46.6237C47.7287 46.535 47.9554 46.4883 48.1942 46.4883H56.2418V48.0894H48.971V51.3266H56.2418V51.329ZM50.3822 50.4654V48.9646H55.7328V50.4654H50.3822Z" fill="white"/>
</svg>
